<svg width="18" height="18" viewBox="0 0 18 18" fill="none" xmlns="http://www.w3.org/2000/svg">
<path d="M11.1224 0.220703C11.7182 0.228983 12.2866 0.342023 12.8174 0.612023C13.2854 0.851603 13.667 1.18658 13.9275 1.64828C14.0968 1.95307 14.2078 2.28672 14.2549 2.63216C14.3518 3.29528 14.2538 3.9368 14.0351 4.5641C13.9066 4.93202 13.7288 5.27708 13.5362 5.61602C13.1438 6.30596 12.6396 6.90392 12.0532 7.43402C11.3008 8.11478 10.4757 8.71063 9.59293 9.2108C9.25093 9.40394 8.89633 9.56612 8.51491 9.6653C8.28125 9.72841 8.03999 9.75894 7.79797 9.75602C7.47937 9.74954 7.23007 9.60446 7.03621 9.36002C6.8572 9.14063 6.76496 8.86316 6.77701 8.58026C6.77912 8.50156 6.79047 8.42339 6.81085 8.34734C6.92623 7.93748 7.08301 7.5449 7.31737 7.18688C7.49647 6.91346 7.70995 6.67064 7.98913 6.49694C8.29963 6.30362 8.63713 6.221 9.00217 6.30074C9.11629 6.32749 9.2237 6.37743 9.31771 6.44744C9.55801 6.61916 9.54541 6.88862 9.43003 7.0607C9.33118 7.21024 9.22068 7.35174 9.09955 7.48388C8.89435 7.70492 8.67637 7.9139 8.46361 8.12774C8.27533 8.31692 8.09839 8.51546 7.95493 8.74172C7.88059 8.85908 7.81201 8.97878 7.79149 9.11972C7.76557 9.29648 7.85737 9.4169 8.03575 9.43346C8.12804 9.44099 8.22094 9.43166 8.30989 9.40592C8.58403 9.33014 8.83855 9.20792 9.08857 9.07616C9.47413 8.87222 9.82999 8.62292 10.1768 8.35994C10.5973 8.04116 11.0061 7.7087 11.3828 7.33898C11.812 6.91832 12.1945 6.46112 12.4871 5.93354C12.701 5.54834 12.8585 5.14154 12.9285 4.70522C12.9904 4.32092 12.9559 3.94652 12.7778 3.59372C12.6921 3.41934 12.558 3.27331 12.3916 3.17306C12.3147 3.12679 12.2299 3.09518 12.1415 3.07982C11.8199 3.02276 11.5087 3.06956 11.2028 3.17162C10.8841 3.27818 10.5883 3.4337 10.3009 3.60362C9.67699 3.9737 9.05239 4.3436 8.45785 4.7603C8.15977 4.9691 7.87087 5.19122 7.57873 5.4083C7.31485 5.6045 7.05277 5.80304 6.76441 5.96342C6.5304 6.09667 6.27712 6.1928 6.01363 6.24836C5.68711 6.3146 5.38615 6.25304 5.10967 6.07556C4.82275 5.89142 4.62187 5.6387 4.53367 5.30426C4.47751 5.09312 4.49965 4.88378 4.54807 4.67534C4.61881 4.36934 4.75309 4.09214 4.92049 3.82934C5.33449 3.18026 5.85505 2.62964 6.46039 2.15894C7.35751 1.46144 8.34463 0.924323 9.41239 0.535703C9.96059 0.335178 10.5387 0.22868 11.1224 0.220703Z" fill="#E20010"/>
<path d="M3.74172 15.0607C3.73866 14.8569 3.71544 14.6737 3.59772 14.5147C3.54039 14.4379 3.46103 14.3804 3.3702 14.3498C3.1362 14.266 2.89788 14.2759 2.6655 14.3477C2.4792 14.4053 2.29956 14.4838 2.11722 14.5538C2.08122 14.5671 2.04846 14.5842 2.0049 14.6036C1.91904 14.3907 1.83462 14.1841 1.74624 13.9681C1.87422 13.9074 1.99482 13.8455 2.1192 13.7924C2.40576 13.6698 2.70294 13.5857 3.01542 13.5668C3.3279 13.5479 3.63624 13.5645 3.92064 13.7161C4.2423 13.8863 4.4745 14.1322 4.5717 14.4901C4.58572 14.5369 4.59412 14.5852 4.59672 14.6341C4.60914 15.0986 4.62588 15.5632 4.62786 16.0278C4.62912 16.3453 4.60824 16.663 4.59888 16.9807C4.59721 17.0243 4.57907 17.0656 4.54812 17.0963C4.32582 17.3411 4.05384 17.5103 3.74568 17.6239C3.41523 17.7444 3.06333 17.795 2.7123 17.7724C2.3883 17.7544 2.10858 17.6217 1.87206 17.4016C1.63554 17.1814 1.4703 16.9156 1.42422 16.5898C1.36122 16.1435 1.48992 15.7564 1.81068 15.4378C2.01696 15.2329 2.27112 15.1271 2.5575 15.0896C2.8743 15.0484 3.19218 15.0594 3.51006 15.0603L3.74172 15.0607ZM3.70014 15.7861C3.68147 15.7824 3.66259 15.7798 3.64362 15.7783C3.53562 15.7762 3.42636 15.7724 3.31782 15.774C3.18768 15.776 3.057 15.7765 2.92758 15.7888C2.79384 15.8015 2.66406 15.8406 2.56038 15.9299C2.3883 16.0782 2.33718 16.2719 2.37912 16.4902C2.43132 16.7602 2.58216 16.9489 2.85108 17.0291C2.98974 17.0706 3.13656 17.0768 3.27822 17.0471C3.40989 17.023 3.5327 16.9641 3.6339 16.8765C3.65103 16.8632 3.66512 16.8464 3.67521 16.8272C3.6853 16.808 3.69116 16.7869 3.6924 16.7653C3.69654 16.6704 3.70878 16.5757 3.7095 16.4809C3.71094 16.2636 3.7077 16.0463 3.7059 15.8291C3.70482 15.8146 3.7029 15.8003 3.70014 15.7861Z" fill="#E20010"/>
<path d="M14.5681 15.7678C13.7959 15.7678 13.0381 15.7513 12.2697 15.7714C12.2737 15.8254 12.276 15.8765 12.2809 15.9264C12.3007 16.1303 12.3446 16.3285 12.4308 16.5155C12.4978 16.6681 12.6019 16.8015 12.7336 16.9036C12.9424 17.0622 13.1807 17.0881 13.4307 17.0559C13.6373 17.0293 13.8298 16.9537 14.0216 16.8775C14.1097 16.8428 14.197 16.8055 14.2916 16.7668C14.3816 16.9551 14.4698 17.1401 14.5616 17.3306C14.5447 17.3428 14.5289 17.3565 14.5112 17.3666C14.1368 17.5887 13.7347 17.7318 13.3004 17.7696C12.9044 17.804 12.5264 17.739 12.1844 17.5199C11.9515 17.3707 11.7884 17.1599 11.6519 16.9241C11.4839 16.6308 11.3822 16.3042 11.3539 15.9673C11.2967 15.353 11.4272 14.7811 11.7452 14.2515C11.9669 13.8834 12.298 13.6834 12.7123 13.6145C13.0932 13.5475 13.4855 13.6128 13.8242 13.7995C14.0139 13.9023 14.146 14.0641 14.2549 14.2456C14.3989 14.4848 14.4747 14.7485 14.5111 15.0217C14.5406 15.242 14.5499 15.4651 14.5676 15.6877C14.5697 15.7106 14.5681 15.7343 14.5681 15.7678ZM13.6321 15.0685C13.5873 14.8631 13.5567 14.6533 13.4222 14.4792C13.3548 14.3927 13.2601 14.3315 13.1535 14.3057C12.87 14.2306 12.5851 14.3613 12.4632 14.6297C12.4196 14.7253 12.3941 14.8291 12.3624 14.9297C12.3482 14.9753 12.339 15.0226 12.3277 15.0685C12.4038 15.0887 13.5542 15.0896 13.6325 15.0691L13.6321 15.0685Z" fill="#E20010"/>
<path d="M9.5023 12.6308L10.4237 12.4883V13.6199C10.6282 13.6322 10.823 13.6189 11.0188 13.6399V14.3371C10.8208 14.3403 10.6269 14.3344 10.4248 14.3466C10.4248 14.3858 10.4248 14.4152 10.4248 14.4445C10.4231 15.1156 10.4217 15.7867 10.4205 16.4578C10.4205 16.5635 10.4289 16.6693 10.4385 16.7746C10.4536 16.9366 10.5434 17.0394 10.7004 17.0788C10.787 17.1008 10.8759 17.1132 10.9637 17.1299L11.0519 17.1479V17.7396C11.042 17.7445 11.0315 17.748 11.0206 17.75C10.7591 17.7617 10.4986 17.7549 10.2457 17.678C9.99874 17.6035 9.79282 17.4685 9.65314 17.246C9.57376 17.12 9.53344 16.9784 9.51598 16.832C9.50542 16.7404 9.50025 16.6482 9.5005 16.5559C9.5005 15.2815 9.50122 14.0072 9.50266 12.7331L9.5023 12.6308Z" fill="#E20010"/>
<path d="M15.0746 12.6315L15.9656 12.4771V12.6C15.9656 13.7574 15.9661 14.9148 15.9671 16.0722C15.9671 16.284 15.9689 16.4959 15.9705 16.7079C15.9719 16.9171 16.0482 17.0237 16.248 17.0859C16.3159 17.1047 16.3849 17.1195 16.4545 17.1302C16.497 17.1381 16.54 17.1419 16.5917 17.1482V17.7527C16.5869 17.7566 16.5812 17.7594 16.5751 17.7608C16.322 17.771 16.07 17.7669 15.824 17.6949C15.6749 17.652 15.536 17.5792 15.4159 17.481C15.1922 17.298 15.1011 17.0526 15.0777 16.776C15.0708 16.695 15.0717 16.6131 15.0719 16.5317C15.0719 15.2656 15.0728 13.9996 15.0746 12.7337V12.6315Z" fill="#E20010"/>
<path d="M7.71077 17.6992H6.81077C6.80969 17.6616 6.80789 17.6272 6.80771 17.5932C6.80675 17.0525 6.80597 16.5118 6.80537 15.971C6.80429 15.539 6.80159 15.107 6.80177 14.675C6.80205 14.5967 6.80807 14.5185 6.81977 14.441C6.83309 14.3527 6.87935 14.279 6.94361 14.2169C7.29713 13.8728 7.72067 13.6665 8.20361 13.5776C8.50627 13.5221 8.81646 13.5217 9.11927 13.5763C9.13529 13.5792 9.15131 13.5828 9.16697 13.5868C9.17471 13.5887 9.18209 13.5925 9.19703 13.5983C9.09479 13.8582 8.97023 14.1066 8.85287 14.3521C8.71265 14.3521 8.57981 14.348 8.44733 14.353C8.21854 14.3606 7.99396 14.4166 7.78835 14.5172C7.73003 14.5458 7.70825 14.5814 7.70843 14.6486C7.71095 15.6326 7.71155 16.6166 7.71023 17.6006L7.71077 17.6992Z" fill="#E20010"/>
<path d="M6.14706 13.6582C6.1566 15.0068 6.14616 16.3474 6.1548 17.6963H5.27406C5.2719 17.6637 5.26758 17.6297 5.26758 17.5957C5.26758 16.7479 5.26758 15.9 5.26758 15.0519C5.26758 14.6633 5.27082 14.2747 5.27244 13.8861C5.27244 13.8566 5.27244 13.827 5.27244 13.79L6.14706 13.6582Z" fill="#E20010"/>
<path d="M5.67001 13.261C5.23999 13.2599 4.97071 12.8319 5.14909 12.4278C5.25871 12.1799 5.44699 12.0858 5.71861 12.0874C6.08257 12.0905 6.35239 12.4525 6.26563 12.8062C6.19633 13.0888 5.96953 13.2617 5.67001 13.261Z" fill="#E20010"/>
</svg>
