<svg width="32" height="7" viewBox="0 0 32 7" fill="none" xmlns="http://www.w3.org/2000/svg">
<path d="M10.8936 2.38184H10.3848V4.78683H10.8936V2.38184Z" fill="#2A3362"/>
<path d="M12.8632 3.93401C12.8632 4.26593 12.6307 4.41506 12.3212 4.41506C12.0116 4.41506 11.8047 4.26593 11.8047 3.95083V3.09375H11.2959V4.05935C11.2959 4.54011 11.6241 4.82126 12.1699 4.82126C12.5129 4.82126 12.7046 4.70521 12.8332 4.57406H12.8629L12.9071 4.78761H13.3752V3.09375H12.8632V3.93401Z" fill="#2A3362"/>
<path d="M17.8545 4.45197C17.4821 4.45197 17.272 4.29616 17.2389 4.06927H18.8538C18.8613 4.02209 18.865 3.97448 18.8649 3.92681C18.8614 3.31751 18.3595 3.05957 17.8226 3.05957C17.1994 3.05957 16.731 3.40194 16.731 3.95408C16.731 4.47895 17.1811 4.82103 17.8557 4.82103C18.4202 4.82103 18.796 4.59095 18.8737 4.23842H18.3709C18.308 4.3774 18.1274 4.45197 17.8545 4.45197ZM17.8229 3.42892C18.1476 3.42892 18.3355 3.56094 18.3652 3.74808H17.2499C17.2976 3.56877 17.4859 3.42892 17.8213 3.42892H17.8229Z" fill="#2A3362"/>
<path d="M19.7295 3.33678H19.6979L19.6499 3.09277H19.1875V4.7875H19.6963V4.05924C19.6963 3.73051 19.9026 3.54772 20.2864 3.54772C20.3561 3.54683 20.4257 3.55247 20.4942 3.56455V3.09364H20.4231C20.0839 3.09364 19.8732 3.15806 19.7295 3.33678Z" fill="#2A3362"/>
<path d="M22.9924 4.25897H22.963L22.5278 3.19878H22.0041L21.5764 4.25577H21.5433L21.1377 3.09375H20.6323L21.2555 4.78761H21.8089L22.2514 3.70682H22.2808L22.716 4.78761H23.2729L23.8961 3.09375H23.3907L22.9924 4.25897Z" fill="#2A3362"/>
<path d="M25.9215 4.29433V3.72739C25.9215 3.26664 25.4973 3.06006 24.9698 3.06006C24.4095 3.06006 24.0592 3.30407 24.0112 3.66936H24.52C24.557 3.51007 24.7045 3.42216 24.9698 3.42216C25.2351 3.42216 25.412 3.51355 25.412 3.69983V3.74306L24.5822 3.80109C24.1988 3.82836 23.9189 3.98417 23.9189 4.31609C23.9189 4.65817 24.2399 4.82065 24.7117 4.82065C25.0927 4.82065 25.3248 4.72316 25.467 4.57606H25.4922C25.5721 4.74144 25.7342 4.78699 25.9104 4.78699H26.1243V4.44201H26.0762C25.9692 4.44201 25.9215 4.39472 25.9215 4.29433ZM25.4123 4.11473C25.4123 4.38253 25.0649 4.47045 24.767 4.47045C24.5642 4.47045 24.4316 4.42315 24.4316 4.29433C24.4316 4.17827 24.5459 4.12169 24.7158 4.10806L25.4126 4.06076L25.4123 4.11473Z" fill="#2A3362"/>
<path d="M27.8025 3.09375L27.2087 4.32019H27.1756L26.5745 3.09375H26.0249L26.884 4.78761H27.4927L28.348 3.09375H27.8025Z" fill="#2A3362"/>
<path d="M29.9746 4.23842C29.9114 4.3774 29.731 4.45197 29.4581 4.45197C29.0857 4.45197 28.8757 4.29616 28.8425 4.06927H30.4575C30.465 4.02209 30.4687 3.97448 30.4686 3.92681C30.4651 3.31751 29.9632 3.05957 29.4262 3.05957C28.8031 3.05957 28.335 3.40194 28.335 3.95408C28.335 4.47895 28.7847 4.82103 29.4594 4.82103C30.0238 4.82103 30.3997 4.59095 30.4774 4.23842H29.9746ZM29.425 3.42892C29.7497 3.42892 29.9376 3.56094 29.9673 3.74808H28.8523C28.9007 3.56877 29.0883 3.42892 29.4237 3.42892H29.425Z" fill="#2A3362"/>
<path d="M9.5578 2.9689C9.5578 2.81977 9.67214 2.75565 9.81965 2.75565C9.88825 2.75623 9.95646 2.76531 10.0224 2.78263L10.1074 2.44374C9.98423 2.40373 9.85458 2.38313 9.72394 2.38281C9.34776 2.38281 9.04549 2.56589 9.04549 2.94511V3.09366H8.60645V3.46476H9.04549V4.78752H9.5578V3.46447H10.1314V3.09366H9.5578V2.9689Z" fill="#2A3362"/>
<path d="M14.4975 2.61572H14.0237L13.9972 3.0933H13.5967V3.46439H13.9877V4.29943C13.9877 4.58377 14.1456 4.82168 14.6194 4.82168C14.7422 4.82168 14.8647 4.80923 14.9846 4.78454V4.42796C14.9154 4.44219 14.845 4.45016 14.7742 4.45175C14.5199 4.45175 14.4978 4.31974 14.4978 4.21789V3.46352H15.0032V3.0933H14.4975V2.61572Z" fill="#2A3362"/>
<path d="M16.0955 2.61572H15.6233L15.5968 3.0933H15.1953V3.46439H15.5863V4.29943C15.5863 4.58377 15.7443 4.82168 16.2181 4.82168C16.3406 4.82133 16.4627 4.80859 16.5822 4.78367V4.42796C16.5131 4.44219 16.4427 4.45016 16.3719 4.45175C16.1176 4.45175 16.0955 4.31974 16.0955 4.21789V3.46352H16.6025V3.0933H16.0955V2.61572Z" fill="#2A3362"/>
<path d="M1.52344 2.31778C1.52344 2.04592 1.60998 1.81381 1.7916 1.64697L2.10746 1.93712C1.75591 2.25888 2.06292 3.2593 3.06387 4.17963C4.06481 5.09997 5.15452 5.3817 5.50575 5.05935L5.82161 5.34949C5.22906 5.8938 3.87941 5.50762 2.74959 4.46949C1.96595 3.74935 1.52344 2.93231 1.52344 2.31778Z" fill="#009A46"/>
<path d="M3.51524 5.59953C3.21929 5.59953 2.9666 5.52003 2.78467 5.3532L3.10052 5.06306C3.45144 5.38541 4.54051 5.10339 5.54241 4.18334C6.5443 3.2633 6.85068 2.26288 6.49977 1.94053L6.81562 1.65039C7.40848 2.1947 6.98776 3.43448 5.85763 4.47233C5.07368 5.19333 4.18423 5.59953 3.51524 5.59953Z" fill="#FF5805"/>
<path d="M5.96199 4.05735C5.77026 3.55018 5.3786 3.00819 4.85902 2.53119C3.7292 1.49306 2.37955 1.10659 1.787 1.65119C1.74499 1.69007 1.78131 1.78611 1.86849 1.86618C1.95567 1.94626 2.06021 1.97934 2.10222 1.94075C2.45346 1.6184 3.54253 1.90042 4.54411 2.82076C5.01789 3.25597 5.37102 3.74196 5.54127 4.19168C5.69035 4.58599 5.67582 4.90399 5.5021 5.06357C5.45977 5.10215 5.49641 5.19848 5.58327 5.27827C5.67013 5.35806 5.775 5.39172 5.81732 5.35284C6.12086 5.07401 6.17235 4.61326 5.96199 4.05735Z" fill="#F5AFCB"/>
<path d="M6.81496 1.65127C6.51079 1.37186 6.00985 1.32456 5.40403 1.51809C4.85223 1.69392 4.2619 2.05398 3.74263 2.53098C2.61281 3.56882 2.19209 4.80861 2.78464 5.3532C2.82696 5.39179 2.93151 5.35843 3.01869 5.27864C3.10587 5.19885 3.14219 5.10252 3.09986 5.06364C2.748 4.74129 3.05596 3.74088 4.05786 2.82054C4.53164 2.38533 5.0607 2.06095 5.55027 1.90456C5.97952 1.7679 6.3257 1.78096 6.49974 1.94054C6.54175 1.97913 6.64661 1.94576 6.73347 1.86568C6.82033 1.7856 6.85697 1.68985 6.81496 1.65127Z" fill="#FF9B00"/>
</svg>
