<svg width="23" height="10" viewBox="0 0 23 10" fill="none" xmlns="http://www.w3.org/2000/svg">
<g clip-path="url(#clip0_324_36661)">
<path d="M0.359194 8.55292L0.190819 9.39525C0.168369 9.46004 0.168369 9.51404 0.168369 9.57883C0.168369 9.76242 0.280619 9.84881 0.437769 9.84881C0.639819 9.84881 0.785744 9.71922 0.841869 9.39525L1.02147 8.55292H1.20107L1.03269 9.39525C0.954118 9.81641 0.740844 9.9892 0.426544 9.9892C0.168369 9.9892 -0.0112305 9.85961 -0.0112305 9.56803L-5.48176e-06 9.36285L0.157144 8.54212H0.359194V8.55292ZM1.45924 9.9892L1.59394 9.26566C1.62762 9.14687 1.62762 9.04968 1.65007 8.96328H1.80722L1.77354 9.15767C1.86334 9.00648 2.00927 8.93089 2.16642 8.93089C2.28989 8.93089 2.42459 9.00648 2.42459 9.21166L2.41337 9.38445L2.28989 9.9676H2.09907L2.21132 9.38445L2.22254 9.24406C2.22254 9.14687 2.17764 9.07127 2.05417 9.07127C1.93069 9.07127 1.73987 9.21166 1.69497 9.47084L1.59394 9.9676H1.45924V9.9892ZM2.81747 9.9892L3.01952 8.96328H3.21034L3.00829 9.9892H2.81747ZM3.05319 8.67171C3.05319 8.61771 3.12054 8.55292 3.17667 8.55292C3.24402 8.55292 3.28892 8.59611 3.28892 8.66091C3.28892 8.7365 3.24402 8.7797 3.16544 8.7797C3.09809 8.7797 3.05319 8.7365 3.05319 8.67171ZM3.99609 8.6933L3.95119 8.96328H4.19814L4.16446 9.09287H3.91752L3.82772 9.58963C3.80527 9.65443 3.80527 9.69762 3.80527 9.76242C3.80527 9.81641 3.83894 9.84881 3.90629 9.84881H3.98486L3.96241 9.9892L3.82772 10C3.67057 10 3.60322 9.91361 3.60322 9.80562L3.61444 9.61123L3.72669 9.09287H3.56954L3.60322 8.96328H3.76037L3.80527 8.7365L3.99609 8.6933ZM5.17471 9.92441C5.09614 9.9676 4.96144 10 4.82674 10C4.54611 10 4.42264 9.81641 4.42264 9.58963C4.42264 9.28726 4.65836 8.93089 4.99511 8.93089C5.19716 8.93089 5.30941 9.04968 5.30941 9.19006C5.30941 9.46004 4.99511 9.53564 4.60224 9.51404C4.59101 9.56803 4.60224 9.65443 4.62469 9.71922C4.66959 9.80562 4.74816 9.84881 4.86041 9.84881C4.98389 9.84881 5.07369 9.80562 5.14104 9.77322L5.17471 9.92441ZM4.96144 9.07127C4.79306 9.07127 4.66959 9.23326 4.62469 9.38445C4.90531 9.38445 5.11859 9.35205 5.11859 9.19006C5.11859 9.11447 5.06246 9.07127 4.96144 9.07127ZM6.72376 8.47732L6.48804 9.65443C6.46559 9.76242 6.44314 9.88121 6.44314 9.9676H6.26354L6.29721 9.77322C6.20741 9.92441 6.06149 10 5.92679 10C5.71351 10 5.61249 9.83801 5.61249 9.62203C5.61249 9.26566 5.89311 8.93089 6.26354 8.93089C6.33089 8.93089 6.40946 8.94168 6.45436 8.96328L6.54416 8.47732H6.72376ZM6.42069 9.11447C6.38701 9.08207 6.33089 9.07127 6.25231 9.07127C6.00536 9.07127 5.79209 9.31965 5.79209 9.58963C5.79209 9.71922 5.84821 9.84881 6.00536 9.84881C6.14006 9.84881 6.31966 9.69762 6.36456 9.47084L6.42069 9.11447ZM7.81259 8.57451C7.91361 8.55292 8.02586 8.54212 8.12689 8.54212C8.28403 8.54212 8.39629 8.57451 8.47486 8.63931C8.54221 8.7041 8.58711 8.7797 8.58711 8.86609C8.58711 9.04968 8.42996 9.19006 8.27281 9.23326C8.41873 9.27646 8.51976 9.38445 8.51976 9.54644C8.51976 9.69762 8.44118 9.80562 8.35139 9.88121C8.23913 9.9676 8.07076 10 7.86871 10L7.55441 9.9892L7.81259 8.57451ZM7.75646 9.83801L7.91361 9.84881C8.12689 9.84881 8.34016 9.76242 8.34016 9.53564C8.34016 9.36285 8.19423 9.28726 8.02586 9.28726H7.87994L7.75646 9.83801ZM7.89116 9.15767H8.03709C8.23913 9.15767 8.41873 9.04968 8.41873 8.88769C8.41873 8.7473 8.30649 8.6933 8.14933 8.6933L7.99219 8.7041L7.89116 9.15767ZM9.57491 9.9892L9.60858 9.73002C9.49633 9.93521 9.33918 10.0108 9.19326 10.0108C9.01366 10.0108 8.90141 9.85961 8.90141 9.68682C8.90141 9.31965 9.17081 8.96328 9.63103 8.96328C9.73206 8.96328 9.85553 8.97408 9.92288 9.00648L9.81063 9.53564C9.77696 9.71922 9.76573 9.89201 9.76573 10H9.57491V9.9892ZM9.69838 9.08207L9.57491 9.07127C9.30551 9.07127 9.06978 9.34125 9.06978 9.62203C9.06978 9.74082 9.11468 9.84881 9.26061 9.84881C9.41776 9.84881 9.58613 9.65443 9.63103 9.38445L9.69838 9.08207ZM10.2147 9.9892L10.3607 9.26566L10.4056 8.96328H10.5627L10.529 9.15767C10.6188 9.00648 10.7648 8.93089 10.9219 8.93089C11.0454 8.93089 11.1913 9.00648 11.1913 9.21166L11.1689 9.38445L11.0454 9.9676H10.8546L10.9668 9.38445L10.978 9.24406C10.978 9.14687 10.9331 9.07127 10.8097 9.07127C10.6862 9.07127 10.4954 9.21166 10.4505 9.47084L10.3607 9.9676H10.2147V9.9892ZM11.5954 9.9892L11.8873 8.49892H12.0669L11.876 9.42765C11.9097 9.39525 11.9546 9.35205 11.9658 9.31965L12.3475 8.96328H12.5608L12.1005 9.38445L12.4036 9.9892H12.2016L11.9546 9.49244L11.8087 9.61123L11.7301 10H11.5954V9.9892ZM13.4139 9.9892L13.5822 9.09287H13.4475L13.47 8.96328H13.6159L13.6271 8.89849C13.6608 8.7473 13.7057 8.62851 13.8067 8.54212C13.8629 8.47732 13.9639 8.44492 14.0537 8.44492C14.1323 8.44492 14.1772 8.46652 14.1996 8.47732L14.1435 8.61771C14.121 8.59611 14.0874 8.59611 14.0425 8.59611C13.8965 8.59611 13.818 8.7365 13.7843 8.89849V8.96328H14.02L13.9863 9.09287H13.7618L13.5822 9.9892H13.4139ZM15.2099 9.36285C15.2099 9.68682 14.9741 10.0108 14.6149 10.0108C14.3568 10.0108 14.2108 9.81641 14.2108 9.58963C14.2108 9.26566 14.4578 8.94168 14.8058 8.94168C15.0864 8.93089 15.2099 9.14687 15.2099 9.36285ZM14.4017 9.57883C14.4017 9.74082 14.4915 9.85961 14.6486 9.85961C14.8731 9.85961 15.0303 9.58963 15.0303 9.36285C15.0303 9.24406 14.9629 9.08207 14.7721 9.08207C14.5588 9.07127 14.4017 9.34125 14.4017 9.57883ZM15.5466 9.9892L15.6701 9.31965C15.7038 9.19006 15.715 9.04968 15.7262 8.96328H15.8834L15.8609 9.19006C15.917 9.04968 16.0405 8.94168 16.1864 8.94168H16.2313L16.1977 9.11447H16.1528C15.9956 9.11447 15.8609 9.28726 15.8048 9.53564L15.715 9.9892H15.5466ZM17.3426 9.53564L17.1069 9.9892H16.916L17.6906 8.57451H17.9038L18.1171 9.9892H17.9263L17.8589 9.53564H17.3426ZM17.8477 9.38445L17.7804 8.97408C17.7691 8.89849 17.7691 8.7905 17.7467 8.7149L17.6232 8.97408L17.41 9.38445H17.8477ZM18.4875 9.9892L18.6559 9.09287H18.5212L18.5549 8.96328H18.6896L18.712 8.89849C18.7345 8.7473 18.7906 8.62851 18.8804 8.54212C18.9365 8.47732 19.0376 8.44492 19.1274 8.44492C19.2059 8.44492 19.2508 8.46652 19.2733 8.47732L19.2284 8.61771C19.1947 8.59611 19.161 8.59611 19.1161 8.59611C18.9702 8.59611 18.8916 8.7365 18.8692 8.89849L18.8467 8.94168H19.0825L19.0488 9.08207H18.8131L18.6447 9.9676H18.4875V9.9892ZM19.2845 9.9892L19.408 9.31965L19.4753 8.96328H19.6325L19.5988 9.19006C19.6662 9.04968 19.7896 8.94168 19.9243 8.94168H19.9805L19.9468 9.11447H19.9019C19.7447 9.11447 19.5988 9.28726 19.5539 9.53564L19.4641 9.9892H19.2845ZM20.1825 9.9892L20.3846 8.96328H20.5754L20.3733 9.9892H20.1825ZM20.4182 8.67171C20.4182 8.61771 20.4631 8.55292 20.5417 8.55292C20.5978 8.55292 20.654 8.59611 20.654 8.66091C20.654 8.7365 20.5978 8.7797 20.5193 8.7797C20.4631 8.7797 20.4182 8.7365 20.4182 8.67171ZM21.6081 9.93521C21.5407 9.9676 21.4285 10 21.2938 10C21.0132 10 20.8897 9.81641 20.8897 9.61123C20.8897 9.26566 21.1479 8.94168 21.5295 8.94168C21.6193 8.94168 21.7203 8.97408 21.7428 8.99568L21.6979 9.12527C21.653 9.11447 21.6081 9.08207 21.5295 9.08207C21.2489 9.08207 21.0693 9.34125 21.0693 9.57883C21.0693 9.74082 21.1703 9.84881 21.3387 9.84881C21.4509 9.84881 21.5295 9.81641 21.5856 9.78402L21.6081 9.93521ZM22.6745 9.9892L22.6969 9.73002C22.5959 9.93521 22.4387 10.0108 22.2928 10.0108C22.102 10.0108 22.001 9.85961 22.001 9.68682C22.001 9.31965 22.2591 8.96328 22.7306 8.96328C22.8316 8.96328 22.9551 8.97408 23.0112 9.00648L22.9102 9.53564C22.8765 9.71922 22.8541 9.89201 22.8541 10H22.6745V9.9892ZM22.7979 9.08207L22.6745 9.07127C22.4051 9.07127 22.1693 9.34125 22.1693 9.62203C22.1693 9.74082 22.2142 9.84881 22.3602 9.84881C22.5173 9.84881 22.6857 9.65443 22.7306 9.38445L22.7979 9.08207ZM4.55734 2.5054L3.88384 5.50756C3.68179 6.15551 3.31137 6.60907 2.52562 6.64147C1.85212 6.64147 1.58272 6.2095 1.75109 5.30238L2.34602 2.5054H1.35822L0.673494 5.71274C0.550019 6.94384 1.30209 7.28942 2.44704 7.25702C3.53587 7.22462 4.28794 6.74946 4.71449 5.79914L5.46656 2.5054H4.55734ZM12.8751 4.01728L13.2679 5.57235H11.8087L12.8751 4.01728ZM13.1781 2.5054L9.86676 7.14903H10.7648L11.3934 6.2527H13.4588L13.6608 7.14903H14.7272L13.5486 2.5054H13.1781ZM16.3997 7.18143H18.2967C20.0029 7.10583 20.3733 6.36069 19.8233 5.11879L17.7467 1.2203L16.3997 7.18143ZM21.0581 0C19.3519 0.0755939 18.9927 0.831533 19.5427 2.06263L21.6081 5.96112L22.9551 0H21.0581ZM6.76866 6.56587L7.11664 5H7.50951C8.08199 5 8.56466 5.19438 8.56466 5.71274C8.56466 6.33909 7.92484 6.59827 7.20644 6.59827L6.76866 6.56587ZM7.52074 3.09935H7.99219C8.50853 3.09935 8.82283 3.21814 8.82283 3.61771C8.82283 4.09287 8.35139 4.39525 7.64421 4.39525H7.25134L7.52074 3.09935ZM6.76866 2.5054L6.69009 2.5162L5.69106 7.17063H7.61054C8.26159 7.17063 8.63201 6.99784 8.87896 6.85745C9.27183 6.60907 9.55246 6.2095 9.65348 5.72354C9.77696 5.0648 9.30551 4.71922 8.72181 4.66523C9.31673 4.53564 9.82186 4.11447 9.85553 3.50972C9.93411 2.5054 8.75548 2.5054 8.75548 2.5054H6.76866Z" fill="#D71920"/>
</g>
<defs>
<clipPath id="clip0_324_36661">
<rect width="23" height="10" fill="white"/>
</clipPath>
</defs>
</svg>
