<svg width="25" height="28" viewBox="0 0 25 28" fill="none" xmlns="http://www.w3.org/2000/svg">
<g filter="url(#filter0_d_324_36654)">
<path d="M12.4077 18.8857C12.5623 18.8076 16.5833 17.05 17.8596 15.9955C19.1741 14.9036 19.8701 13.3392 19.8701 11.4644V2.67613L19.7541 2.63707C16.5446 0.879078 12.5619 0.99625 12.369 0.99625C12.2144 0.99625 8.23167 0.879078 5.02264 2.63707L4.94531 2.67613V11.5035C4.94531 13.3782 5.64125 14.941 6.95579 16.0346C8.23167 17.0891 12.253 18.8484 12.4077 18.8857Z" fill="#341B14"/>
<path d="M12.4076 19.0812C12.4076 19.0812 8.15421 17.2064 6.83967 16.1506C5.4478 14.9789 4.79053 13.3788 4.79053 11.5415V2.40291C8.15421 0.566801 12.4076 0.723031 12.4076 0.723031C12.4076 0.723031 16.6609 0.566801 20.0246 2.40291V11.5037C20.0246 13.3394 19.3673 14.9411 17.9754 16.1128C16.6609 17.2048 12.4076 19.0812 12.4076 19.0812V19.0812ZM5.40914 11.5427C5.40914 13.2612 6.02774 14.6677 7.2263 15.6442C8.3072 16.5425 11.5183 17.9876 12.4076 18.3782C13.2968 17.9876 16.5445 16.5034 17.5888 15.6442C18.7874 14.6677 19.406 13.2222 19.406 11.5427V2.55914C14.9207 2.12951 9.58474 2.36385 5.40914 6.26958V11.5427V11.5427Z" fill="#FFB406"/>
<path d="M16.6991 10.2537C17.2812 10.6052 17.5111 10.8416 17.5497 11.2692C17.5497 11.7379 17.2404 12.0113 16.7378 12.0113C16.3121 12.0113 15.8095 11.7769 15.4615 11.4653V12.7151C15.8868 12.9495 16.3894 13.1448 16.9311 13.1448C18.2457 13.1448 18.8643 12.2074 18.8643 11.3481C18.9029 10.567 18.671 9.94207 17.5497 9.2781C17.0471 8.96564 16.6605 8.77035 16.6605 8.30167C16.6605 7.83298 17.0858 7.63727 17.4337 7.63727C17.8977 7.63727 18.3617 7.91067 18.6323 8.18324V7.01152C18.4003 6.81623 17.8977 6.54283 17.1631 6.58189C16.2734 6.62095 15.3455 7.24586 15.3455 8.33988C15.3842 9.08197 15.6162 9.62877 16.6991 10.2537ZM12.1365 13.0675C12.2525 13.1065 12.4458 13.1456 12.7551 13.1456C14.263 13.1456 15.1135 11.7786 15.1135 9.82574C15.1135 7.8334 14.2243 6.62263 12.6391 6.62263C11.9045 6.62263 11.3246 6.77885 10.822 7.09131V15.9191H12.1365V13.0675V13.0675ZM12.1365 7.75529C12.2525 7.71623 12.4458 7.63811 12.6005 7.63811C13.3737 7.63811 13.6814 8.26345 13.6814 9.78668C13.6814 11.2709 13.2947 11.9739 12.5215 11.9739C12.3758 11.9784 12.2309 11.9518 12.0962 11.8958V7.75361L12.1365 7.75529ZM8.07688 13.1439C8.88881 13.1439 9.58474 12.9486 10.0874 12.598V6.70116H8.73415V11.816C8.5795 11.9332 8.38619 11.9722 8.11555 11.9722C7.49694 11.9722 7.41961 11.3864 7.41961 11.0348V6.70116H6.06641V10.9567C6.06641 12.4018 6.76234 13.1439 8.07688 13.1439V13.1439ZM17.0862 18.4183V19.3167H17.2396V18.9643H17.2812L17.5132 19.3158H17.7065C17.7065 19.3158 17.4745 18.9643 17.4358 18.9252C17.5518 18.8862 17.6291 18.8081 17.6291 18.6909C17.6291 18.5737 17.5518 18.4175 17.3198 18.4175L17.0862 18.4183ZM17.3182 18.5355C17.4342 18.5355 17.4728 18.6136 17.4728 18.6527C17.4728 18.7308 17.4342 18.8089 17.2795 18.8089H17.2396V18.5355H17.3182Z" fill="#FFB406"/>
<path d="M17.9366 18.8471C17.9366 18.9634 17.9024 19.0772 17.8384 19.1739C17.7743 19.2707 17.6833 19.346 17.5768 19.3905C17.4704 19.4349 17.3532 19.4464 17.2403 19.4236C17.1273 19.4007 17.0236 19.3445 16.9423 19.2621C16.861 19.1796 16.8057 19.0747 16.7835 18.9605C16.7613 18.8463 16.7731 18.728 16.8175 18.6206C16.8618 18.5132 16.9368 18.4215 17.0327 18.3572C17.1287 18.2928 17.2415 18.2587 17.3567 18.2591C17.4334 18.2577 17.5096 18.2719 17.5808 18.301C17.6519 18.3301 17.7165 18.3733 17.7707 18.4283C17.8248 18.4832 17.8674 18.5486 17.896 18.6205C17.9245 18.6925 17.9383 18.7696 17.9366 18.8471ZM17.3567 18.105C17.2114 18.105 17.0694 18.1485 16.9485 18.23C16.8277 18.3116 16.7336 18.4275 16.678 18.5631C16.6224 18.6987 16.6078 18.8479 16.6362 18.9918C16.6645 19.1358 16.7345 19.268 16.8372 19.3718C16.94 19.4756 17.0709 19.5463 17.2134 19.5749C17.3559 19.6035 17.5036 19.5888 17.6378 19.5327C17.772 19.4765 17.8867 19.3814 17.9675 19.2593C18.0482 19.1373 18.0913 18.9938 18.0913 18.8471C18.0913 18.4565 17.7433 18.105 17.3567 18.105Z" fill="#FFB406"/>
</g>
<defs>
<filter id="filter0_d_324_36654" x="0" y="0" width="25" height="28" filterUnits="userSpaceOnUse" color-interpolation-filters="sRGB">
<feFlood flood-opacity="0" result="BackgroundImageFix"/>
<feColorMatrix in="SourceAlpha" type="matrix" values="0 0 0 0 0 0 0 0 0 0 0 0 0 0 0 0 0 0 127 0" result="hardAlpha"/>
<feOffset dy="4"/>
<feGaussianBlur stdDeviation="2"/>
<feComposite in2="hardAlpha" operator="out"/>
<feColorMatrix type="matrix" values="0 0 0 0 0 0 0 0 0 0 0 0 0 0 0 0 0 0 0.25 0"/>
<feBlend mode="normal" in2="BackgroundImageFix" result="effect1_dropShadow_324_36654"/>
<feBlend mode="normal" in="SourceGraphic" in2="effect1_dropShadow_324_36654" result="shape"/>
</filter>
</defs>
</svg>
